<svg width="24" height="24" viewBox="0 0 24 24" fill="none" xmlns="http://www.w3.org/2000/svg">
<path d="M23.7618 11.5536C23.7618 5.41695 18.6185 0.4375 12.2813 0.4375C5.94405 0.4375 0.800781 5.41695 0.800781 11.5536C0.800781 14.9336 2.38509 17.9796 4.86489 20.0243C4.88785 20.0465 4.91081 20.0465 4.91081 20.0688C5.11746 20.2246 5.32411 20.3804 5.55372 20.5361C5.66852 20.6029 5.76037 20.6905 5.87517 20.7795C7.77242 22.0263 10.012 22.6925 12.3043 22.692C14.5965 22.6925 16.8361 22.0263 18.7334 20.7795C18.8482 20.7128 18.94 20.6252 19.0548 20.557C19.2615 20.4026 19.4911 20.2468 19.6977 20.091C19.7207 20.0688 19.7436 20.0688 19.7436 20.0465C22.1775 17.9783 23.7618 14.9336 23.7618 11.5536ZM12.2813 21.2914C10.123 21.2914 8.14831 20.6238 6.51808 19.5124C6.54104 19.3344 6.58696 19.1577 6.63289 18.9797C6.7697 18.4972 6.97036 18.0339 7.22987 17.6013C7.48244 17.1785 7.78094 16.8002 8.14831 16.4663C8.49273 16.1325 8.90603 15.8223 9.31933 15.5775C9.75559 15.3327 10.2148 15.1547 10.72 15.0212C11.229 14.8882 11.7541 14.8213 12.2813 14.8223C13.8465 14.8115 15.3541 15.3934 16.4832 16.4441C17.0113 16.9559 17.4246 17.5568 17.7231 18.2453C17.8838 18.6459 17.9986 19.0687 18.0675 19.5124C16.3729 20.6671 14.3527 21.2882 12.2813 21.2914ZM8.76826 10.9987C8.56595 10.5497 8.46421 10.0643 8.46977 9.57438C8.46977 9.08617 8.56161 8.59657 8.76826 8.15148C8.97491 7.70639 9.25044 7.3072 9.59486 6.97338C9.93927 6.63956 10.3526 6.3739 10.8118 6.17361C11.271 5.97332 11.7762 5.8843 12.2813 5.8843C12.8094 5.8843 13.2916 5.97332 13.7508 6.17361C14.21 6.3739 14.6233 6.64095 14.9677 6.97338C15.3122 7.3072 15.5877 7.70778 15.7943 8.15148C16.001 8.59657 16.0928 9.08617 16.0928 9.57438C16.0928 10.0862 16.001 10.5536 15.7943 10.9973C15.5949 11.4358 15.3148 11.8355 14.9677 12.1768C14.6155 12.5127 14.2031 12.7837 13.7508 12.9765C12.802 13.3545 11.7377 13.3545 10.7888 12.9765C10.3365 12.7837 9.92416 12.5127 9.5719 12.1768C9.22435 11.8404 8.95094 11.4405 8.76826 10.9987ZM19.4222 18.3788C19.4222 18.3343 19.3992 18.3121 19.3992 18.2676C19.1734 17.5713 18.8405 16.912 18.4119 16.3119C17.9828 15.7074 17.4556 15.1743 16.8505 14.7333C16.3885 14.3964 15.8877 14.1126 15.3581 13.8876C15.599 13.7335 15.8222 13.555 16.0239 13.3549C16.3663 13.0273 16.6669 12.6612 16.9194 12.2644C17.428 11.4546 17.6906 10.5223 17.6771 9.57438C17.6842 8.87269 17.5436 8.17696 17.2638 7.52975C16.9876 6.90612 16.59 6.3399 16.0928 5.86205C15.5964 5.38918 15.0121 5.01163 14.3708 4.74932C13.7019 4.47864 12.9831 4.34282 12.2583 4.35013C11.5334 4.34326 10.8147 4.47955 10.1459 4.75071C9.49907 5.01246 8.91336 5.39802 8.42385 5.8843C7.93598 6.36498 7.54644 6.93085 7.27579 7.552C6.99603 8.19922 6.85539 8.89494 6.8625 9.59664C6.8625 10.0862 6.93138 10.5536 7.06914 10.9973C7.20691 11.4646 7.3906 11.8875 7.64317 12.2867C7.87278 12.6872 8.19424 13.0433 8.53865 13.3771C8.7453 13.5774 8.97491 13.7541 9.22748 13.9098C8.69627 14.1408 8.19527 14.4322 7.73501 14.7778C7.13803 15.2229 6.60992 15.7556 6.17366 16.3342C5.74065 16.9318 5.40745 17.5917 5.18634 18.2898C5.16338 18.3343 5.16338 18.3788 5.16338 18.4011C3.34946 16.6221 2.22437 14.2214 2.22437 11.5536C2.22437 6.19586 6.74769 1.81589 12.2813 1.81589C17.8149 1.81589 22.3382 6.19586 22.3382 11.5536C22.3352 14.1129 21.2868 16.5668 19.4222 18.3788Z" fill="#024788"/>
</svg>
